<?xml version="1.0" standalone="no"?>
<!DOCTYPE svg PUBLIC "-//W3C//DTD SVG 20010904//EN"
 "http://www.w3.org/TR/2001/REC-SVG-20010904/DTD/svg10.dtd">
<svg version="1.0" xmlns="http://www.w3.org/2000/svg"
 width="260.000000pt" height="260.000000pt" viewBox="0 0 260.000000 260.000000"
 preserveAspectRatio="xMidYMid meet">
<metadata>
Created by potrace 1.14, written by Peter Selinger 2001-2017
</metadata>
<g transform="translate(0.000000,260.000000) scale(0.100000,-0.100000)"
fill="#000000" stroke="none">
<path d="M307 2589 c-129 -30 -241 -134 -286 -264 -20 -59 -20 -73 -18 -1040
l2 -980 31 -66 c43 -90 112 -160 199 -201 l70 -33 960 -3 c713 -2 974 0 1015
9 127 27 219 99 277 217 l38 76 0 996 0 996 -37 76 c-45 91 -103 147 -196 191
l-67 32 -975 2 c-540 0 -992 -3 -1013 -8z"/>
</g>
</svg>
